<?xml version="1.0" encoding="utf-8"?>
<!-- Svg Vector Icons : http://www.onlinewebfonts.com/icon -->
<!DOCTYPE svg PUBLIC "-//W3C//DTD SVG 1.1//EN" "http://www.w3.org/Graphics/SVG/1.1/DTD/svg11.dtd">
<svg version="1.1" xmlns="http://www.w3.org/2000/svg" xmlns:xlink="http://www.w3.org/1999/xlink" x="0px" y="0px" viewBox="0 0 1000 1000" enable-background="new 0 0 1000 1000" xml:space="preserve">
<metadata> Svg Vector Icons : http://www.onlinewebfonts.com/icon </metadata>
<g><g transform="translate(0.000000,511.000000) scale(0.100000,-0.100000)"><path d="M985.6,4988.4c-217.8-51.3-401.5-202.9-499.7-414.3L426.1,4446V1114.6v-3331.3l47-126c94-245.6,303.2-450.6,544.6-531.7c53.4-19.2,185.8-40.6,292.6-49.1l194.3-15v61.9c2.1,34.2,4.3,1601.6,6.4,3480.8l4.3,3421l-224.2,8.5c-335.3,15-446.3,85.4-482.6,311.8c-17.1,111,47,258.4,143.1,326.7l72.6,51.2l2479.3,6.4l2481.4,4.3l23.5,59.8c29.9,72.6,4.3,162.3-59.8,194.3C5895,5018.3,1107.3,5016.1,985.6,4988.4z"/><path d="M2514.6,4091.5c-352.4-44.9-593.7-273.3-640.6-606.5c-10.7-70.5-17.1-1578.1-14.9-3352.7c2.1-2498.5,8.5-3245.9,29.9-3320.7c38.4-138.8,98.2-247.7,194.3-352.4c183.7-198.6,399.3-288.3,696.2-288.3h177.2v3480.8v3480.8h-224.2c-316,0-427.1,59.8-482.6,262.7c-44.8,168.7,72.6,369.5,247.7,418.6c59.8,17.1,813.6,23.5,2504.9,23.5h2417.4l25.6,53.4c29.9,68.3-8.5,166.6-81.1,200.7C7302.3,4119.2,2732.4,4121.4,2514.6,4091.5z"/><path d="M3810.8,3130.5c-277.6-47-499.7-230.6-576.6-482.6c-42.7-136.7-42.7-194.3-42.7-3412.5c0-3203.2,0-3275.8,42.7-3410.4c83.3-273.3,299-486.9,574.4-574.4c130.3-38.5,215.7-40.6,2573.3-40.6c2660.8,0,2545.5-4.3,2759,119.6c132.4,76.9,279.8,247.7,356.6,410l68.3,143.1l6.4,2722.7c4.3,1979.6,0,2756.9-17.1,2850.9c-66.2,341.7-339.6,621.4-679.1,691.9c-79,17.1-854.2,23.5-2571.1,23.5c-2438.7,0-2460.1,0-2549.8,44.9c-228.5,108.9-237,461.3-14.9,597.9l81.1,51.2l2466.5,6.4c1926.2,4.3,2468.6,10.7,2481.4,32c36.3,57.7,17.1,160.2-38.4,205c-57.7,44.8-59.8,44.8-2430.2,42.7C4996,3149.7,3874.9,3141.2,3810.8,3130.5z"/></g></g>
</svg>